#!OML:ASF F:\VICON\USERDATA\INSTALL\rory3\rory3.ASF
:FULLY-SPECIFIED
:DEGREES
3190
root -3.63021 17.7681 -5.62985 5.41607 52.9938 -1.51622
lowerback 5.51916 -1.80268 -6.10556
upperback 1.37092 -2.70212 1.44382
thorax -1.32079 -1.33714 5.09669
lowerneck -13.8476 -12.9198 -15.9382
upperneck 16.1574 -16.2581 10.055
head 9.52195 -7.71641 3.7104
rclavicle -1.15295e-014 -4.57205e-015
rhumerus -34.2777 -19.1682 -73.7536
rradius 36.8048
rwrist 18.7365
rhand -36.4127 -2.34655
rfingers 7.12502
rthumb -9.50806 -32.112
lclavicle -1.15295e-014 -4.57205e-015
lhumerus -34.5009 11.2616 77.9499
lradius 34.4607
lwrist -7.96977
lhand -13.88 26.4748
lfingers 7.12502
lthumb 12.2448 -1023.9
rfemur -27.8575 -1.10906 14.1655
rtibia 22.705
rfoot -15.5863 -15.7049
rtoes 4.89832
lfemur -6.59015 2.48321 -22.3853
ltibia 23.79
lfoot -20.7136 9.87477
ltoes -0.456321
3191
root -3.63326 17.7655 -5.66861 5.09239 52.8924 -1.97158
lowerback 5.53451 -1.8779 -5.80285
upperback 1.34106 -2.78548 1.53649
thorax -1.35959 -1.37746 5.02831
lowerneck -14.1235 -12.9166 -15.798
upperneck 16.2183 -16.2299 9.97264
head 9.56773 -7.69216 3.65233
rclavicle 4.74598e-014 2.82274e-014
rhumerus -34.4349 -19.7562 -73.7322
rradius 35.2561
rwrist 19.1693
rhand -36.1911 -2.44459
rfingers 7.12502
rthumb -9.29415 -32.2197
lclavicle 4.74598e-014 2.82274e-014
lhumerus -34.6545 10.7953 78.3698
lradius 34.4798
lwrist -8.04314
lhand -14.1352 27.6126
lfingers 7.12502
lthumb 11.9987 -1022.75
rfemur -27.8474 -0.883853 14.3281
rtibia 22.4911
rfoot -16.4429 -15.8716
rtoes 5.47963
lfemur -6.75606 2.45416 -22.1933
ltibia 23.8427
lfoot -20.7356 9.92279
ltoes 0.194594
3192
root -3.64113 17.7658 -5.70832 4.78494 52.715 -2.45037
lowerback 5.62389 -1.90826 -5.51652
upperback 1.25962 -2.81517 1.62155
thorax -1.50002 -1.3865 4.96327
lowerneck -14.3316 -12.9122 -15.6457
upperneck 16.2753 -16.2233 9.93234
head 9.60607 -7.67586 3.60674
rclavicle 5.0541e-014 -3.08116e-014
rhumerus -34.6089 -20.2404 -73.714
rradius 33.7136
rwrist 19.4835
rhand -36.1338 -2.25516
rfingers 7.12502
rthumb -9.23895 -32.0327
lclavicle 5.0541e-014 -3.08116e-014
lhumerus -34.7588 10.4403 78.625
lradius 34.3088
lwrist -8.03362
lhand -14.1184 27.8526
lfingers 7.12502
lthumb 12.015 -1022.51
rfemur -27.9165 -0.510721 14.5074
rtibia 22.3058
rfoot -17.3977 -16.1221
rtoes 6.46797
lfemur -6.97666 2.53871 -21.9817
ltibia 23.87
lfoot -20.6624 10.0137
ltoes 0.190513
3193
root -3.63552 17.7702 -5.74189 5.12089 52.5188 -2.0487
lowerback 5.53446 -1.92473 -5.74067
upperback 1.21086 -2.84836 1.54343
thorax -1.48923 -1.4019 5.00746
lowerneck -14.334 -12.8756 -15.6167
upperneck 16.2493 -16.2053 10.056
head 9.60421 -7.65442 3.64846
rclavicle -1.70955e-014 1.19271e-015
rhumerus -34.9351 -20.5846 -73.6942
rradius 32.3044
rwrist 19.9633
rhand -36.138 -2.37094
rfingers 7.12502
rthumb -9.24292 -32.1483
lclavicle -1.70955e-014 1.19271e-015
lhumerus -34.7916 10.3111 78.7374
lradius 33.9032
lwrist -8.10265
lhand -13.9008 27.5931
lfingers 7.12502
lthumb 12.2247 -1022.78
rfemur -27.8661 -0.538449 14.1978
rtibia 22.1228
rfoot -17.9514 -16.198
rtoes 6.1103
lfemur -7.0523 2.71477 -22.3761
ltibia 23.9166
lfoot -20.6999 9.96807
ltoes 0.352526
3194
root -3.62652 17.7729 -5.77103 5.50493 52.3438 -1.54079
lowerback 5.39607 -1.93861 -6.07605
upperback 1.21145 -2.87898 1.4891
thorax -1.39317 -1.41985 5.13539
lowerneck -14.427 -12.8501 -15.6223
upperneck 16.2565 -16.172 10.1298
head 9.62634 -7.62883 3.67569
rclavicle -1.93318e-014 -2.5842e-015
rhumerus -35.2793 -20.9407 -73.5549
rradius 30.994
rwrist 20.6908
rhand -36.0654 -2.54529
rfingers 7.12502
rthumb -9.17288 -32.3258
lclavicle -1.93318e-014 -2.5842e-015
lhumerus -34.8178 9.99721 78.994
lradius 33.6144
lwrist -8.13112
lhand -13.7344 27.6085
lfingers 7.12502
lthumb 12.3852 -1022.78
rfemur -27.827 -0.778409 13.8676
rtibia 22.0637
rfoot -18.1536 -16.1332
rtoes 5.63047
lfemur -7.03124 3.06131 -22.8282
ltibia 23.8511
lfoot -20.6256 9.78085
ltoes 0.438047
3195
root -3.62414 17.7725 -5.79564 5.44562 52.1517 -1.58341
lowerback 5.35783 -1.93764 -6.1678
upperback 1.17818 -2.88069 1.54732
thorax -1.39831 -1.41976 5.24736
lowerneck -14.456 -12.814 -15.5548
upperneck 16.2345 -16.1367 10.1522
head 9.61507 -7.60555 3.6791
rclavicle -5.33737e-014 1.74931e-014
rhumerus -35.6648 -21.3532 -73.3472
rradius 29.768
rwrist 21.3163
rhand -35.8743 -2.634
rfingers 7.12502
rthumb -8.98851 -32.4225
lclavicle -5.33737e-014 1.74931e-014
lhumerus -34.9802 9.50368 79.2817
lradius 33.4739
lwrist -8.10165
lhand -13.6287 27.6805
lfingers 7.12502
lthumb 12.4871 -1022.71
rfemur -27.8568 -0.778798 13.8831
rtibia 22.112
rfoot -18.6094 -16.1089
rtoes 5.76643
lfemur -6.97807 3.41093 -22.8688
ltibia 23.7023
lfoot -20.3768 9.64593
ltoes -0.30376
3196
root -3.62108 17.7689 -5.81769 5.36612 52.0274 -1.55645
lowerback 5.35099 -1.94973 -6.31808
upperback 1.19755 -2.90343 1.58633
thorax -1.36146 -1.43272 5.37344
lowerneck -14.4572 -12.7882 -15.4703
upperneck 16.1497 -16.1254 10.2058
head 9.58165 -7.59105 3.68826
rclavicle -1.96797e-014 7.95139e-016
rhumerus -36.0319 -21.7548 -73.2013
rradius 28.6984
rwrist 21.8767
rhand -35.4062 -2.76178
rfingers 7.12502
rthumb -8.53682 -32.5692
lclavicle -1.96797e-014 7.95139e-016
lhumerus -34.9887 9.32236 79.4518
lradius 33.1088
lwrist -8.37522
lhand -13.4198 27.5906
lfingers 7.12502
lthumb 12.6885 -1022.81
rfemur -27.7881 -0.716011 13.813
rtibia 22.1523
rfoot -19.2772 -16.1525
rtoes 5.55119
lfemur -6.84686 3.55907 -22.9505
ltibia 23.6067
lfoot -20.1007 9.63787
ltoes -1.46962
3197
root -3.61544 17.7655 -5.84455 5.36916 51.9191 -1.49362
lowerback 5.32227 -1.96159 -6.36186
upperback 1.20127 -2.91984 1.5832
thorax -1.33717 -1.44188 5.39427
lowerneck -14.5849 -12.8185 -15.4804
upperneck 16.1908 -16.1794 10.3323
head 9.63912 -7.59929 3.71602
rclavicle 5.58585e-014 -5.36719e-015
rhumerus -36.3592 -21.8312 -73.1699
rradius 27.7478
rwrist 22.1328
rhand -34.8639 -3.06078
rfingers 7.12502
rthumb -8.01345 -32.8889
lclavicle 5.58585e-014 -5.36719e-015
lhumerus -34.9014 9.20452 79.5793
lradius 32.6461
lwrist -8.73624
lhand -13.2382 27.7382
lfingers 7.12502
lthumb 12.8636 -1022.68
rfemur -27.761 -0.764139 13.7219
rtibia 22.1406
rfoot -19.5933 -16.203
rtoes 4.5086
lfemur -6.7908 3.48331 -23.0959
ltibia 23.5709
lfoot -20.094 9.73583
ltoes -1.62572
3198
root -3.60743 17.7633 -5.87453 5.56027 51.74 -1.31286
lowerback 5.21156 -1.95563 -6.38811
upperback 1.16861 -2.90851 1.52931
thorax -1.31233 -1.43632 5.3479
lowerneck -14.7237 -12.8537 -15.4409
upperneck 16.2642 -16.2389 10.3947
head 9.70012 -7.61234 3.71299
rclavicle -1.33732e-013 4.19436e-014
rhumerus -36.6715 -21.9823 -73.0576
rradius 26.7858
rwrist 22.7071
rhand -34.4214 -3.03304
rfingers 7.12502
rthumb -7.58636 -32.877
lclavicle -1.33732e-013 4.19436e-014
lhumerus -34.8132 8.91447 79.7514
lradius 32.2738
lwrist -8.96908
lhand -13.2093 28.1736
lfingers 7.12502
lthumb 12.8915 -1022.24
rfemur -27.8671 -0.741585 13.5136
rtibia 22.1326
rfoot -19.8309 -16.0428
rtoes 3.968
lfemur -6.83319 3.45381 -23.3424
ltibia 23.5174
lfoot -20.2302 9.71254
ltoes -0.376904
3199
root -3.60133 17.7634 -5.90229 5.64344 51.6182 -1.19794
lowerback 5.16608 -1.9466 -6.41723
upperback 1.1474 -2.89652 1.49433
thorax -1.31097 -1.42979 5.32567
lowerneck -14.7312 -12.8583 -15.3685
upperneck 16.2384 -16.2704 10.4424
head 9.69482 -7.61805 3.71309
rclavicle 6.60959e-015 0
rhumerus -37.1622 -22.3236 -72.8285
rradius 25.9999
rwrist 23.6455
rhand -33.9846 -2.66134
rfingers 7.12502
rthumb -7.16469 -32.5201
lclavicle 6.60959e-015 0
lhumerus -34.7464 8.63549 79.9018
lradius 31.9242
lwrist -9.22946
lhand -13.1813 28.487
lfingers 7.12502
lthumb 12.9184 -1021.93
rfemur -27.9043 -0.611672 13.3293
rtibia 22.1356
rfoot -20.014 -16.0364
rtoes 3.70735
lfemur -6.80108 3.36775 -23.5115
ltibia 23.4591
lfoot -20.3752 9.65716
ltoes 0.53585
3200
root -3.60068 17.7614 -5.92639 5.61917 51.5463 -1.09837
lowerback 5.27671 -1.9402 -6.51552
upperback 1.12044 -2.90184 1.46376
thorax -1.39665 -1.42819 5.35548
lowerneck -14.5597 -12.8244 -15.2667
upperneck 16.046 -16.269 10.5035
head 9.59361 -7.6145 3.73039
rclavicle -3.81667e-014 -1.03368e-014
rhumerus -37.842 -22.6657 -72.5997
rradius 25.6065
rwrist 24.6135
rhand -33.1303 -2.52478
rfingers 7.12502
rthumb -6.34003 -32.4099
lclavicle -3.81667e-014 -1.03368e-014
lhumerus -34.8292 8.30244 80.0169
lradius 31.7453
lwrist -9.40702
lhand -12.3595 27.8882
lfingers 7.12502
lthumb 13.7105 -1022.58
rfemur -27.8377 -0.401868 13.1399
rtibia 22.1352
rfoot -20.3278 -16.0102
rtoes 4.10781
lfemur -6.68465 3.4565 -23.6209
ltibia 23.4164
lfoot -20.4701 9.41963
ltoes 1.36247
3201
root -3.59834 17.7573 -5.95067 5.73122 51.4506 -0.871904
lowerback 5.3026 -1.94002 -6.67259
upperback 1.12587 -2.91274 1.40442
thorax -1.39905 -1.43311 5.38376
lowerneck -14.4354 -12.8138 -15.1441
upperneck 15.8438 -16.2997 10.5783
head 9.50147 -7.62169 3.74107
rclavicle -6.32632e-014 2.06736e-014
rhumerus -38.4462 -23.1716 -72.2694
rradius 25.3263
rwrist 25.9203
rhand -32.0383 -2.48933
rfingers 7.12502
rthumb -5.28569 -32.4034
lclavicle -6.32632e-014 2.06736e-014
lhumerus -34.8807 7.98781 80.114
lradius 31.6541
lwrist -9.54383
lhand -10.731 26.5082
lfingers 7.12502
lthumb 15.2797 -1024.08
rfemur -27.8224 -0.316514 12.9037
rtibia 22.1123
rfoot -20.5176 -15.9031
rtoes 3.91803
lfemur -6.64861 3.8153 -23.8063
ltibia 23.4132
lfoot -20.5373 8.97443
ltoes 2.53029
3202
root -3.59456 17.753 -5.97423 5.70371 51.3955 -0.848438
lowerback 5.28701 -1.96787 -6.70121
upperback 1.14463 -2.94967 1.4052
thorax -1.36407 -1.45334 5.40126
lowerneck -14.4941 -12.826 -15.1296
upperneck 15.844 -16.3364 10.6867
head 9.52621 -7.62534 3.76614
rclavicle -4.94974e-014 -1.19271e-014
rhumerus -38.9028 -23.5593 -71.9636
rradius 24.9264
rwrist 26.8785
rhand -31.378 -2.39116
rfingers 7.12502
rthumb -4.6481 -32.3202
lclavicle -4.94974e-014 -1.19271e-014
lhumerus -34.8499 8.0687 80.0934
lradius 31.4286
lwrist -9.94637
lhand -9.72105 25.7978
lfingers 7.12502
lthumb 16.2523 -1024.86
rfemur -27.8015 -0.160247 12.7777
rtibia 22.071
rfoot -20.7385 -15.7601
rtoes 4.18282
lfemur -6.68395 4.26229 -23.8654
ltibia 23.4697
lfoot -20.462 8.58538
ltoes 2.43028
3203
root -3.59267 17.7499 -5.99686 5.50669 51.4028 -1.02435
lowerback 5.34409 -2.00714 -6.59351
upperback 1.15025 -2.99881 1.4536
thorax -1.38619 -1.47752 5.39603
lowerneck -14.6545 -12.8592 -15.2229
upperneck 15.9468 -16.3783 10.8202
head 9.6178 -7.62977 3.8081
rclavicle -1.27918e-013 4.13472e-014
rhumerus -39.2488 -23.6347 -71.8168
rradius 24.468
rwrist 27.3016
rhand -30.959 -2.48508
rfingers 7.12502
rthumb -4.24354 -32.4226
lclavicle -1.27918e-013 4.13472e-014
lhumerus -34.7589 8.38616 79.9862
lradius 31.0552
lwrist -10.5268
lhand -9.48197 25.611
lfingers 7.12502
lthumb 16.4824 -1025.07
rfemur -27.7448 0.135672 12.754
rtibia 22.0172
rfoot -21.015 -15.6737
rtoes 4.86375
lfemur -6.72637 4.41613 -23.7937
ltibia 23.5654
lfoot -20.4146 8.40626
ltoes 1.9688
